<svg xmlns="http://www.w3.org/2000/svg" viewBox="0 0 100 100">
  <defs>
    <linearGradient id="pyYellow" x1="0%" y1="0%" x2="100%" y2="100%">
      <stop offset="0%" style="stop-color:#ffe873"/>
      <stop offset="100%" style="stop-color:#ffd43b"/>
    </linearGradient>
    <linearGradient id="pyBlue" x1="0%" y1="0%" x2="100%" y2="100%">
      <stop offset="0%" style="stop-color:#5a9fd4"/>
      <stop offset="100%" style="stop-color:#306998"/>
    </linearGradient>
  </defs>
  <path fill="url(#pyBlue)" d="M50,5 C30,5 25,15 25,25 L25,35 L50,35 L50,40 L20,40 C10,40 5,50 5,60 C5,75 15,80 25,80 L35,80 L35,65 C35,55 45,50 50,50 L65,50 C75,50 80,45 80,35 L80,25 C80,15 70,5 50,5 Z M35,15 C38,15 40,17 40,20 C40,23 38,25 35,25 C32,25 30,23 30,20 C30,17 32,15 35,15 Z"/>
  <path fill="url(#pyYellow)" d="M50,95 C70,95 75,85 75,75 L75,65 L50,65 L50,60 L80,60 C90,60 95,50 95,40 C95,25 85,20 75,20 L65,20 L65,35 C65,45 55,50 50,50 L35,50 C25,50 20,55 20,65 L20,75 C20,85 30,95 50,95 Z M65,85 C62,85 60,83 60,80 C60,77 62,75 65,75 C68,75 70,77 70,80 C70,83 68,85 65,85 Z"/>
</svg>
